<svg width="93" height="82" viewBox="0 0 93 82" fill="none" xmlns="http://www.w3.org/2000/svg">
<g clip-path="url(#clip0_1012_1084)">
<path d="M21.0097 1.15915L41.2139 10.62H72.1597L74.7216 6.04174C76.2596 3.29398 74.4019 0 71.6011 0H21.2282C20.5442 0 20.3783 0.863106 21.0097 1.15915Z" fill="white"/>
<path d="M41.2139 14.6812H91.6192C92.202 14.6812 92.7646 15.1523 92.7646 15.8528C92.7646 16.4741 92.3517 16.8785 91.9349 16.9953L0.736627 42.4423C0.141671 42.6091 -0.275203 41.821 0.222617 41.4083L41.2139 14.6812Z" fill="white"/>
<path d="M15.7441 42.4631L48.835 41.8293C52.0445 41.7668 55.8044 39.8613 57.5205 36.7966L61.4869 29.7L15.7441 42.4631Z" fill="white"/>
<path d="M15.5903 59.1625L18.1239 53.9964L20.6575 59.1625H15.5903ZM19.3178 51.6072H16.9583L10.9885 63.4655H13.4776L14.5461 61.2848H21.6936L22.3938 62.715C22.7378 63.4155 23.0576 63.4614 23.952 63.4614H25.2836L19.3138 51.603L19.3178 51.6072Z" fill="white"/>
<path d="M32.1924 57.778C32.7752 57.7906 33.5077 57.7989 34.0137 57.7989C35.495 57.7989 36.8508 57.753 37.5753 57.0067C37.9072 56.6606 38.0812 56.1853 38.0569 55.6974C38.065 55.293 37.9234 54.9052 37.6643 54.6008C36.9399 53.8545 35.8916 53.8086 34.0096 53.8086C33.5037 53.8086 32.7711 53.8169 32.1883 53.8294V57.778H32.1924ZM32.1924 59.9546V63.4654H29.8813V51.7155C31.0955 51.6821 32.7307 51.6362 34.0865 51.6362C36.7294 51.6362 38.4859 52.0198 39.5302 53.0998C40.1696 53.7836 40.5056 54.7092 40.457 55.6599C40.457 59.0539 37.8869 59.9796 34.216 59.9796C33.7142 59.9796 32.7792 59.9671 32.1883 59.9587" fill="white"/>
<path d="M48.584 53.6209C45.9654 53.6209 44.0996 55.1845 44.0996 57.5904C44.0996 59.9962 45.9654 61.5598 48.584 61.5598C51.2026 61.5598 53.0684 59.9962 53.0684 57.5904C53.0684 55.1845 51.2026 53.6209 48.584 53.6209ZM55.4766 57.5904C55.4766 60.9594 52.9065 63.6947 48.584 63.6947C44.2615 63.6947 41.6914 60.9552 41.6914 57.5904C41.6914 54.2255 44.2615 51.4861 48.584 51.4861C52.9065 51.4861 55.4766 54.2255 55.4766 57.5904Z" fill="white"/>
<path d="M67.1491 52.7995C65.8944 51.9948 63.8626 51.4819 62.3246 51.4819C59.4268 51.4819 57.1481 53.0539 57.1481 55.2387C57.1481 59.3541 65.0121 57.8281 65.0121 60.2714C65.0121 61.268 63.5753 61.6933 62.3449 61.6933C60.7057 61.6808 59.103 61.1637 57.7471 60.2089L56.5653 62.0227C57.9981 63.0275 60.305 63.6988 62.1425 63.6988C65.0121 63.6988 67.4162 62.3187 67.4162 60.0129C67.4162 55.835 59.5887 57.1359 59.5887 54.8718C59.5887 53.9128 60.8838 53.4917 62.2842 53.4917C63.6279 53.5125 64.9392 53.9211 66.0644 54.68L67.1531 52.8037L67.1491 52.7995Z" fill="white"/>
<path d="M79.2667 51.707H68.2418V53.8919H72.5603V63.4653H74.8673V53.8919H79.2667V51.707Z" fill="white"/>
<path d="M80.7157 51.7071V62.6189C80.7157 63.1109 81.0112 63.4653 81.5414 63.4653H90.838V61.2888H83.0267V58.5535H90.0002V56.377H83.0267V53.8878H90.6316V51.7029H80.7197L80.7157 51.7071Z" fill="white"/>
<path d="M4.23753 51.707H1.92651V62.6189C1.92651 63.1109 2.22197 63.4653 2.75217 63.4653H9.65285L10.7497 61.2888H4.23753V51.707Z" fill="white"/>
<path d="M10.005 73.6225C10.005 75.2861 9.07004 75.7906 5.99812 75.7906C5.5691 75.7906 4.74345 75.7906 4.16064 75.7823V71.6044C4.46014 71.6044 5.8079 71.5877 6.04264 71.5877C8.85553 71.5877 10.0009 72.1798 10.0009 73.6266M11.3244 70.9581C10.3247 69.9449 8.71387 69.5112 5.8848 69.5112C4.37919 69.5112 1.93866 69.5654 1.93866 69.5654V81.5113H4.16064V77.8963C4.75559 77.9046 5.60553 77.9046 6.04264 77.9046C8.96481 77.9046 12.32 77.4168 12.32 73.6099C12.32 72.5133 11.9962 71.6461 11.3244 70.9581Z" fill="white"/>
<path d="M22.5557 73.5766C22.5557 74.8066 21.8758 75.5155 18.391 75.5155C17.9701 75.5155 16.9421 75.5155 16.3188 75.503V71.6002C16.6102 71.6002 18.3141 71.5835 18.5489 71.5835C21.4306 71.5835 22.5557 72.1423 22.5557 73.5724M21.8312 77.2125C23.7335 76.6287 24.8546 75.2987 24.8546 73.5891C24.8546 72.4675 24.5187 71.596 23.8225 70.9164C22.5679 69.7322 20.9246 69.5071 18.3263 69.5071C16.5819 69.5071 14.0928 69.5613 14.0928 69.5613V81.5072H16.3148V77.5252H19.4069L22.0093 80.8109C22.3938 81.2862 22.9321 81.5113 23.693 81.5113H25.4576L21.8272 77.2167L21.8312 77.2125Z" fill="white"/>
<path d="M37.4499 75.5322C37.4499 77.9631 35.6083 79.6601 32.9695 79.6601C30.3306 79.6601 28.4891 77.9631 28.4891 75.5322C28.4891 73.1014 30.3306 71.4043 32.9695 71.4043C35.6083 71.4043 37.4499 73.1014 37.4499 75.5322ZM32.9695 69.3279C28.8938 69.3279 26.17 72.0339 26.17 75.5322C26.17 79.0305 28.9303 81.7366 32.9695 81.7366C37.0087 81.7366 39.769 79.1056 39.769 75.5322C39.769 71.9589 36.9399 69.3279 32.9695 69.3279Z" fill="white"/>
</g>
<defs>
<clipPath id="clip0_1012_1084">
<rect width="92.7645" height="81.7366" fill="white"/>
</clipPath>
</defs>
</svg>
