<svg width="158" height="96" viewBox="0 0 158 96" fill="none" xmlns="http://www.w3.org/2000/svg">
<line x1="1.01453" y1="4.08203" x2="1.01453" y2="82.6595" stroke="white" stroke-width="0.5"/>
<path d="M23.3846 19V2.2H24.8486L32.5286 15.304H31.7606L39.3686 2.2H40.8326V19H39.1286V4.864H39.5366L32.5286 16.864H31.6886L24.6326 4.864H25.0886V19H23.3846ZM51.0824 19.12C49.8664 19.12 48.7704 18.848 47.7944 18.304C46.8344 17.744 46.0744 16.984 45.5144 16.024C44.9544 15.048 44.6744 13.936 44.6744 12.688C44.6744 11.424 44.9544 10.312 45.5144 9.352C46.0744 8.392 46.8344 7.64 47.7944 7.096C48.7544 6.552 49.8504 6.28 51.0824 6.28C52.3304 6.28 53.4344 6.552 54.3944 7.096C55.3704 7.64 56.1304 8.392 56.6744 9.352C57.2344 10.312 57.5144 11.424 57.5144 12.688C57.5144 13.936 57.2344 15.048 56.6744 16.024C56.1304 16.984 55.3704 17.744 54.3944 18.304C53.4184 18.848 52.3144 19.12 51.0824 19.12ZM51.0824 17.608C51.9944 17.608 52.8024 17.408 53.5064 17.008C54.2104 16.592 54.7624 16.016 55.1624 15.28C55.5784 14.528 55.7864 13.664 55.7864 12.688C55.7864 11.696 55.5784 10.832 55.1624 10.096C54.7624 9.36 54.2104 8.792 53.5064 8.392C52.8024 7.976 52.0024 7.768 51.1064 7.768C50.2104 7.768 49.4104 7.976 48.7064 8.392C48.0024 8.792 47.4424 9.36 47.0264 10.096C46.6104 10.832 46.4024 11.696 46.4024 12.688C46.4024 13.664 46.6104 14.528 47.0264 15.28C47.4424 16.016 48.0024 16.592 48.7064 17.008C49.4104 17.408 50.2024 17.608 51.0824 17.608ZM67.4253 6.28C68.4493 6.28 69.3453 6.48 70.1133 6.88C70.8973 7.264 71.5053 7.856 71.9373 8.656C72.3853 9.456 72.6093 10.464 72.6093 11.68V19H70.9053V11.848C70.9053 10.52 70.5693 9.52 69.8973 8.848C69.2413 8.16 68.3133 7.816 67.1133 7.816C66.2173 7.816 65.4333 8 64.7613 8.368C64.1053 8.72 63.5933 9.24 63.2253 9.928C62.8733 10.6 62.6973 11.416 62.6973 12.376V19H60.9933V6.4H62.6253V9.856L62.3613 9.208C62.7613 8.296 63.4013 7.584 64.2813 7.072C65.1613 6.544 66.2093 6.28 67.4253 6.28ZM30.6806 40.144C29.4166 40.144 28.2486 39.936 27.1766 39.52C26.1046 39.088 25.1766 38.488 24.3926 37.72C23.6086 36.952 22.9926 36.048 22.5446 35.008C22.1126 33.968 21.8966 32.832 21.8966 31.6C21.8966 30.368 22.1126 29.232 22.5446 28.192C22.9926 27.152 23.6086 26.248 24.3926 25.48C25.1926 24.712 26.1286 24.12 27.2006 23.704C28.2726 23.272 29.4406 23.056 30.7046 23.056C31.9206 23.056 33.0646 23.264 34.1366 23.68C35.2086 24.08 36.1126 24.688 36.8486 25.504L35.7206 26.632C35.0326 25.928 34.2726 25.424 33.4406 25.12C32.6086 24.8 31.7126 24.64 30.7526 24.64C29.7446 24.64 28.8086 24.816 27.9446 25.168C27.0806 25.504 26.3286 25.992 25.6886 26.632C25.0486 27.256 24.5446 27.992 24.1766 28.84C23.8246 29.672 23.6486 30.592 23.6486 31.6C23.6486 32.608 23.8246 33.536 24.1766 34.384C24.5446 35.216 25.0486 35.952 25.6886 36.592C26.3286 37.216 27.0806 37.704 27.9446 38.056C28.8086 38.392 29.7446 38.56 30.7526 38.56C31.7126 38.56 32.6086 38.4 33.4406 38.08C34.2726 37.76 35.0326 37.248 35.7206 36.544L36.8486 37.672C36.1126 38.488 35.2086 39.104 34.1366 39.52C33.0646 39.936 31.9126 40.144 30.6806 40.144ZM40.2746 40V22.192H41.9786V40H40.2746ZM51.9279 40.12C50.8559 40.12 49.9199 39.92 49.1199 39.52C48.3199 39.12 47.6959 38.52 47.2479 37.72C46.8159 36.92 46.5999 35.92 46.5999 34.72V27.4H48.3039V34.528C48.3039 35.872 48.6319 36.888 49.2879 37.576C49.9599 38.248 50.8959 38.584 52.0959 38.584C52.9759 38.584 53.7359 38.408 54.3759 38.056C55.0319 37.688 55.5279 37.16 55.8639 36.472C56.2159 35.784 56.3919 34.96 56.3919 34V27.4H58.0959V40H56.4639V36.544L56.7279 37.168C56.3279 38.096 55.7039 38.824 54.8559 39.352C54.0239 39.864 53.0479 40.12 51.9279 40.12ZM69.3489 40.12C68.2449 40.12 67.2529 39.872 66.3729 39.376C65.4929 38.864 64.7969 38.128 64.2849 37.168C63.7729 36.208 63.5169 35.048 63.5169 33.688C63.5169 32.312 63.7729 31.152 64.2849 30.208C64.8129 29.248 65.5169 28.52 66.3969 28.024C67.2769 27.528 68.2609 27.28 69.3489 27.28C70.5489 27.28 71.6209 27.552 72.5649 28.096C73.5249 28.624 74.2769 29.368 74.8209 30.328C75.3649 31.288 75.6369 32.408 75.6369 33.688C75.6369 34.952 75.3649 36.072 74.8209 37.048C74.2769 38.008 73.5249 38.76 72.5649 39.304C71.6209 39.848 70.5489 40.12 69.3489 40.12ZM62.8449 40V22.192H64.5489V31.12L64.3089 33.664L64.4769 36.208V40H62.8449ZM69.2289 38.608C70.1249 38.608 70.9249 38.408 71.6289 38.008C72.3329 37.592 72.8929 37.016 73.3089 36.28C73.7249 35.528 73.9329 34.664 73.9329 33.688C73.9329 32.696 73.7249 31.832 73.3089 31.096C72.8929 30.36 72.3329 29.792 71.6289 29.392C70.9249 28.976 70.1249 28.768 69.2289 28.768C68.3329 28.768 67.5249 28.976 66.8049 29.392C66.1009 29.792 65.5409 30.36 65.1249 31.096C64.7249 31.832 64.5249 32.696 64.5249 33.688C64.5249 34.664 64.7249 35.528 65.1249 36.28C65.5409 37.016 66.1009 37.592 66.8049 38.008C67.5249 38.408 68.3329 38.608 69.2289 38.608Z" fill="white"/>
<path d="M22.6406 62V45.2H29.9126C31.4166 45.2 32.7126 45.448 33.8006 45.944C34.8886 46.424 35.7286 47.12 36.3206 48.032C36.9126 48.944 37.2086 50.032 37.2086 51.296C37.2086 52.544 36.9126 53.624 36.3206 54.536C35.7286 55.448 34.8886 56.152 33.8006 56.648C32.7126 57.128 31.4166 57.368 29.9126 57.368H24.8006L26.5286 55.616V62H22.6406ZM26.5286 56.048L24.8006 54.2H29.6966C30.8966 54.2 31.7926 53.944 32.3846 53.432C32.9766 52.92 33.2726 52.208 33.2726 51.296C33.2726 50.368 32.9766 49.648 32.3846 49.136C31.7926 48.624 30.8966 48.368 29.6966 48.368H24.8006L26.5286 46.52V56.048ZM39.9843 62V45.2H47.2563C48.7603 45.2 50.0563 45.448 51.1443 45.944C52.2323 46.424 53.0723 47.12 53.6643 48.032C54.2563 48.944 54.5523 50.032 54.5523 51.296C54.5523 52.544 54.2563 53.624 53.6643 54.536C53.0723 55.432 52.2323 56.12 51.1443 56.6C50.0563 57.08 48.7603 57.32 47.2563 57.32H42.1443L43.8723 55.616V62H39.9843ZM50.6643 62L46.4643 55.904H50.6163L54.8643 62H50.6643ZM43.8723 56.048L42.1443 54.224H47.0403C48.2403 54.224 49.1363 53.968 49.7283 53.456C50.3203 52.928 50.6163 52.208 50.6163 51.296C50.6163 50.368 50.3203 49.648 49.7283 49.136C49.1363 48.624 48.2403 48.368 47.0403 48.368H42.1443L43.8723 46.52V56.048ZM65.7927 62.288C64.4647 62.288 63.2327 62.072 62.0967 61.64C60.9767 61.208 60.0007 60.6 59.1687 59.816C58.3527 59.032 57.7127 58.112 57.2487 57.056C56.8007 56 56.5767 54.848 56.5767 53.6C56.5767 52.352 56.8007 51.2 57.2487 50.144C57.7127 49.088 58.3607 48.168 59.1927 47.384C60.0247 46.6 61.0007 45.992 62.1207 45.56C63.2407 45.128 64.4567 44.912 65.7687 44.912C67.0967 44.912 68.3127 45.128 69.4167 45.56C70.5367 45.992 71.5047 46.6 72.3207 47.384C73.1527 48.168 73.8007 49.088 74.2647 50.144C74.7287 51.184 74.9607 52.336 74.9607 53.6C74.9607 54.848 74.7287 56.008 74.2647 57.08C73.8007 58.136 73.1527 59.056 72.3207 59.84C71.5047 60.608 70.5367 61.208 69.4167 61.64C68.3127 62.072 67.1047 62.288 65.7927 62.288ZM65.7687 58.976C66.5207 58.976 67.2087 58.848 67.8327 58.592C68.4727 58.336 69.0327 57.968 69.5127 57.488C69.9927 57.008 70.3607 56.44 70.6167 55.784C70.8887 55.128 71.0247 54.4 71.0247 53.6C71.0247 52.8 70.8887 52.072 70.6167 51.416C70.3607 50.76 69.9927 50.192 69.5127 49.712C69.0487 49.232 68.4967 48.864 67.8567 48.608C67.2167 48.352 66.5207 48.224 65.7687 48.224C65.0167 48.224 64.3207 48.352 63.6807 48.608C63.0567 48.864 62.5047 49.232 62.0247 49.712C61.5447 50.192 61.1687 50.76 60.8967 51.416C60.6407 52.072 60.5127 52.8 60.5127 53.6C60.5127 54.384 60.6407 55.112 60.8967 55.784C61.1687 56.44 61.5367 57.008 62.0007 57.488C62.4807 57.968 63.0407 58.336 63.6807 58.592C64.3207 58.848 65.0167 58.976 65.7687 58.976Z" fill="#A71680"/>
<path d="M23.8447 82.0669V73.6669H24.7327V81.2989H29.4367V82.0669H23.8447ZM29.6643 76.0909L30.1923 73.8829L30.2883 74.3869C30.1043 74.3869 29.9483 74.3309 29.8203 74.2189C29.7003 74.0989 29.6403 73.9429 29.6403 73.7509C29.6403 73.5589 29.7003 73.4029 29.8203 73.2829C29.9483 73.1629 30.1003 73.1029 30.2763 73.1029C30.4603 73.1029 30.6083 73.1669 30.7203 73.2949C30.8403 73.4149 30.9003 73.5669 30.9003 73.7509C30.9003 73.8149 30.8963 73.8789 30.8883 73.9429C30.8803 74.0069 30.8643 74.0789 30.8403 74.1589C30.8243 74.2309 30.7963 74.3229 30.7563 74.4349L30.2403 76.0909H29.6643ZM32.7233 82.0669V75.7669H33.5753V82.0669H32.7233ZM33.1553 74.3749C32.9793 74.3749 32.8313 74.3149 32.7113 74.1949C32.5913 74.0749 32.5313 73.9309 32.5313 73.7629C32.5313 73.5949 32.5913 73.4549 32.7113 73.3429C32.8313 73.2229 32.9793 73.1629 33.1553 73.1629C33.3313 73.1629 33.4793 73.2189 33.5993 73.3309C33.7193 73.4429 33.7793 73.5829 33.7793 73.7509C33.7793 73.9269 33.7193 74.0749 33.5993 74.1949C33.4873 74.3149 33.3393 74.3749 33.1553 74.3749ZM39.1619 75.7069C39.6739 75.7069 40.1219 75.8069 40.5059 76.0069C40.8979 76.1989 41.2019 76.4949 41.4179 76.8949C41.6419 77.2949 41.7539 77.7989 41.7539 78.4069V82.0669H40.9019V78.4909C40.9019 77.8269 40.7339 77.3269 40.3979 76.9909C40.0699 76.6469 39.6059 76.4749 39.0059 76.4749C38.5579 76.4749 38.1659 76.5669 37.8299 76.7509C37.5019 76.9269 37.2459 77.1869 37.0619 77.5309C36.8859 77.8669 36.7979 78.2749 36.7979 78.7549V82.0669H35.9459V75.7669H36.7619V77.4949L36.6299 77.1709C36.8299 76.7149 37.1499 76.3589 37.5899 76.1029C38.0299 75.8389 38.5539 75.7069 39.1619 75.7069ZM44.1993 82.0669V74.9749C44.1993 74.4149 44.3633 73.9629 44.6913 73.6189C45.0193 73.2749 45.4913 73.1029 46.1073 73.1029C46.3473 73.1029 46.5793 73.1349 46.8033 73.1989C47.0273 73.2629 47.2153 73.3629 47.3673 73.4989L47.0793 74.1349C46.9593 74.0309 46.8193 73.9549 46.6593 73.9069C46.4993 73.8509 46.3273 73.8229 46.1433 73.8229C45.7833 73.8229 45.5073 73.9229 45.3153 74.1229C45.1233 74.3229 45.0273 74.6189 45.0273 75.0109V75.9709L45.0513 76.3669V82.0669H44.1993ZM43.0713 76.4749V75.7669H46.9713V76.4749H43.0713ZM50.5842 82.1269C49.9762 82.1269 49.4282 81.9909 48.9402 81.7189C48.4602 81.4389 48.0802 81.0589 47.8002 80.5789C47.5202 80.0909 47.3802 79.5349 47.3802 78.9109C47.3802 78.2789 47.5202 77.7229 47.8002 77.2429C48.0802 76.7629 48.4602 76.3869 48.9402 76.1149C49.4202 75.8429 49.9682 75.7069 50.5842 75.7069C51.2082 75.7069 51.7602 75.8429 52.2402 76.1149C52.7282 76.3869 53.1082 76.7629 53.3802 77.2429C53.6602 77.7229 53.8002 78.2789 53.8002 78.9109C53.8002 79.5349 53.6602 80.0909 53.3802 80.5789C53.1082 81.0589 52.7282 81.4389 52.2402 81.7189C51.7522 81.9909 51.2002 82.1269 50.5842 82.1269ZM50.5842 81.3709C51.0402 81.3709 51.4442 81.2709 51.7962 81.0709C52.1482 80.8629 52.4242 80.5749 52.6242 80.2069C52.8322 79.8309 52.9362 79.3989 52.9362 78.9109C52.9362 78.4149 52.8322 77.9829 52.6242 77.6149C52.4242 77.2469 52.1482 76.9629 51.7962 76.7629C51.4442 76.5549 51.0442 76.4509 50.5962 76.4509C50.1482 76.4509 49.7482 76.5549 49.3962 76.7629C49.0442 76.9629 48.7642 77.2469 48.5562 77.6149C48.3482 77.9829 48.2442 78.4149 48.2442 78.9109C48.2442 79.3989 48.3482 79.8309 48.5562 80.2069C48.7642 80.5749 49.0442 80.8629 49.3962 81.0709C49.7482 81.2709 50.1442 81.3709 50.5842 81.3709ZM61.9323 82.1269C61.3883 82.1269 60.8963 82.0029 60.4563 81.7549C60.0163 81.4989 59.6643 81.1349 59.4003 80.6629C59.1443 80.1829 59.0163 79.5989 59.0163 78.9109C59.0163 78.2229 59.1443 77.6429 59.4003 77.1709C59.6563 76.6909 60.0043 76.3269 60.4443 76.0789C60.8843 75.8309 61.3803 75.7069 61.9323 75.7069C62.5323 75.7069 63.0683 75.8429 63.5403 76.1149C64.0203 76.3789 64.3963 76.7549 64.6683 77.2429C64.9403 77.7229 65.0763 78.2789 65.0763 78.9109C65.0763 79.5509 64.9403 80.1109 64.6683 80.5909C64.3963 81.0709 64.0203 81.4469 63.5403 81.7189C63.0683 81.9909 62.5323 82.1269 61.9323 82.1269ZM58.6803 84.3949V75.7669H59.4963V77.6629L59.4123 78.9229L59.5323 80.1949V84.3949H58.6803ZM61.8723 81.3709C62.3203 81.3709 62.7203 81.2709 63.0723 81.0709C63.4243 80.8629 63.7043 80.5749 63.9123 80.2069C64.1203 79.8309 64.2243 79.3989 64.2243 78.9109C64.2243 78.4229 64.1203 77.9949 63.9123 77.6269C63.7043 77.2589 63.4243 76.9709 63.0723 76.7629C62.7203 76.5549 62.3203 76.4509 61.8723 76.4509C61.4243 76.4509 61.0203 76.5549 60.6603 76.7629C60.3083 76.9709 60.0283 77.2589 59.8203 77.6269C59.6203 77.9949 59.5203 78.4229 59.5203 78.9109C59.5203 79.3989 59.6203 79.8309 59.8203 80.2069C60.0283 80.5749 60.3083 80.8629 60.6603 81.0709C61.0203 81.2709 61.4243 81.3709 61.8723 81.3709ZM66.8131 82.0669V75.7669H67.6291V77.4829L67.5451 77.1829C67.7211 76.7029 68.0171 76.3389 68.4331 76.0909C68.8491 75.8349 69.3651 75.7069 69.9811 75.7069V76.5349C69.9491 76.5349 69.9171 76.5349 69.8851 76.5349C69.8531 76.5269 69.8211 76.5229 69.7891 76.5229C69.1251 76.5229 68.6051 76.7269 68.2291 77.1349C67.8531 77.5349 67.6651 78.1069 67.6651 78.8509V82.0669H66.8131ZM74.0452 82.1269C73.4372 82.1269 72.8892 81.9909 72.4012 81.7189C71.9212 81.4389 71.5412 81.0589 71.2612 80.5789C70.9812 80.0909 70.8412 79.5349 70.8412 78.9109C70.8412 78.2789 70.9812 77.7229 71.2612 77.2429C71.5412 76.7629 71.9212 76.3869 72.4012 76.1149C72.8812 75.8429 73.4292 75.7069 74.0452 75.7069C74.6692 75.7069 75.2212 75.8429 75.7012 76.1149C76.1892 76.3869 76.5692 76.7629 76.8412 77.2429C77.1212 77.7229 77.2612 78.2789 77.2612 78.9109C77.2612 79.5349 77.1212 80.0909 76.8412 80.5789C76.5692 81.0589 76.1892 81.4389 75.7012 81.7189C75.2132 81.9909 74.6612 82.1269 74.0452 82.1269ZM74.0452 81.3709C74.5012 81.3709 74.9052 81.2709 75.2572 81.0709C75.6092 80.8629 75.8852 80.5749 76.0852 80.2069C76.2932 79.8309 76.3972 79.3989 76.3972 78.9109C76.3972 78.4149 76.2932 77.9829 76.0852 77.6149C75.8852 77.2469 75.6092 76.9629 75.2572 76.7629C74.9052 76.5549 74.5052 76.4509 74.0572 76.4509C73.6092 76.4509 73.2092 76.5549 72.8572 76.7629C72.5052 76.9629 72.2252 77.2469 72.0172 77.6149C71.8092 77.9829 71.7052 78.4149 71.7052 78.9109C71.7052 79.3989 71.8092 79.8309 72.0172 80.2069C72.2252 80.5749 72.5052 80.8629 72.8572 81.0709C73.2092 81.2709 73.6052 81.3709 74.0452 81.3709ZM84.6492 82.1269C84.0492 82.1269 83.5092 81.9909 83.0292 81.7189C82.5572 81.4469 82.1852 81.0709 81.9132 80.5909C81.6412 80.1109 81.5052 79.5509 81.5052 78.9109C81.5052 78.2789 81.6412 77.7229 81.9132 77.2429C82.1852 76.7549 82.5572 76.3789 83.0292 76.1149C83.5092 75.8429 84.0492 75.7069 84.6492 75.7069C85.2092 75.7069 85.7052 75.8309 86.1372 76.0789C86.5772 76.3269 86.9252 76.6909 87.1812 77.1709C87.4372 77.6429 87.5652 78.2229 87.5652 78.9109C87.5652 79.5989 87.4332 80.1829 87.1692 80.6629C86.9132 81.1349 86.5652 81.4989 86.1252 81.7549C85.6932 82.0029 85.2012 82.1269 84.6492 82.1269ZM84.7092 81.3709C85.1572 81.3709 85.5572 81.2709 85.9092 81.0709C86.2692 80.8629 86.5492 80.5749 86.7492 80.2069C86.9572 79.8309 87.0612 79.3989 87.0612 78.9109C87.0612 78.4229 86.9572 77.9949 86.7492 77.6269C86.5492 77.2589 86.2692 76.9709 85.9092 76.7629C85.5572 76.5549 85.1572 76.4509 84.7092 76.4509C84.2692 76.4509 83.8732 76.5549 83.5212 76.7629C83.1692 76.9709 82.8892 77.2589 82.6812 77.6269C82.4732 77.9949 82.3692 78.4229 82.3692 78.9109C82.3692 79.3989 82.4732 79.8309 82.6812 80.2069C82.8892 80.5749 83.1692 80.8629 83.5212 81.0709C83.8732 81.2709 84.2692 81.3709 84.7092 81.3709ZM87.0492 84.3949V80.1949L87.1692 78.9229L87.0852 77.6629V75.7669H87.9012V84.3949H87.0492ZM92.8781 82.1269C92.3421 82.1269 91.8741 82.0269 91.4741 81.8269C91.0741 81.6269 90.7621 81.3269 90.5381 80.9269C90.3221 80.5269 90.2141 80.0269 90.2141 79.4269V75.7669H91.0661V79.3309C91.0661 80.0029 91.2301 80.5109 91.5581 80.8549C91.8941 81.1909 92.3621 81.3589 92.9621 81.3589C93.4021 81.3589 93.7821 81.2709 94.1021 81.0949C94.4301 80.9109 94.6781 80.6469 94.8461 80.3029C95.0221 79.9589 95.1101 79.5469 95.1101 79.0669V75.7669H95.9621V82.0669H95.1461V80.3389L95.2781 80.6509C95.0781 81.1149 94.7661 81.4789 94.3421 81.7429C93.9261 81.9989 93.4381 82.1269 92.8781 82.1269ZM98.3366 82.0669V75.7669H99.1886V82.0669H98.3366ZM98.7686 74.3749C98.5926 74.3749 98.4446 74.3149 98.3246 74.1949C98.2046 74.0749 98.1446 73.9309 98.1446 73.7629C98.1446 73.5949 98.2046 73.4549 98.3246 73.3429C98.4446 73.2229 98.5926 73.1629 98.7686 73.1629C98.9446 73.1629 99.0926 73.2189 99.2126 73.3309C99.3326 73.4429 99.3926 73.5829 99.3926 73.7509C99.3926 73.9269 99.3326 74.0749 99.2126 74.1949C99.1006 74.3149 98.9526 74.3749 98.7686 74.3749ZM107.316 82.1269C106.692 82.1269 106.132 81.9909 105.636 81.7189C105.148 81.4389 104.764 81.0589 104.484 80.5789C104.204 80.0909 104.064 79.5349 104.064 78.9109C104.064 78.2789 104.204 77.7229 104.484 77.2429C104.764 76.7629 105.148 76.3869 105.636 76.1149C106.132 75.8429 106.692 75.7069 107.316 75.7069C107.852 75.7069 108.336 75.8109 108.768 76.0189C109.2 76.2269 109.54 76.5389 109.788 76.9549L109.152 77.3869C108.936 77.0669 108.668 76.8309 108.348 76.6789C108.028 76.5269 107.68 76.4509 107.304 76.4509C106.856 76.4509 106.452 76.5549 106.092 76.7629C105.732 76.9629 105.448 77.2469 105.24 77.6149C105.032 77.9829 104.928 78.4149 104.928 78.9109C104.928 79.4069 105.032 79.8389 105.24 80.2069C105.448 80.5749 105.732 80.8629 106.092 81.0709C106.452 81.2709 106.856 81.3709 107.304 81.3709C107.68 81.3709 108.028 81.2949 108.348 81.1429C108.668 80.9909 108.936 80.7589 109.152 80.4469L109.788 80.8789C109.54 81.2869 109.2 81.5989 108.768 81.8149C108.336 82.0229 107.852 82.1269 107.316 82.1269ZM113.924 82.1269C113.316 82.1269 112.768 81.9909 112.28 81.7189C111.8 81.4389 111.42 81.0589 111.14 80.5789C110.86 80.0909 110.72 79.5349 110.72 78.9109C110.72 78.2789 110.86 77.7229 111.14 77.2429C111.42 76.7629 111.8 76.3869 112.28 76.1149C112.76 75.8429 113.308 75.7069 113.924 75.7069C114.548 75.7069 115.1 75.8429 115.58 76.1149C116.068 76.3869 116.448 76.7629 116.72 77.2429C117 77.7229 117.14 78.2789 117.14 78.9109C117.14 79.5349 117 80.0909 116.72 80.5789C116.448 81.0589 116.068 81.4389 115.58 81.7189C115.092 81.9909 114.54 82.1269 113.924 82.1269ZM113.924 81.3709C114.38 81.3709 114.784 81.2709 115.136 81.0709C115.488 80.8629 115.764 80.5749 115.964 80.2069C116.172 79.8309 116.276 79.3989 116.276 78.9109C116.276 78.4149 116.172 77.9829 115.964 77.6149C115.764 77.2469 115.488 76.9629 115.136 76.7629C114.784 76.5549 114.384 76.4509 113.936 76.4509C113.488 76.4509 113.088 76.5549 112.736 76.7629C112.384 76.9629 112.104 77.2469 111.896 77.6149C111.688 77.9829 111.584 78.4149 111.584 78.9109C111.584 79.3989 111.688 79.8309 111.896 80.2069C112.104 80.5749 112.384 80.8629 112.736 81.0709C113.088 81.2709 113.484 81.3709 113.924 81.3709ZM126.752 75.7069C127.264 75.7069 127.708 75.8069 128.084 76.0069C128.468 76.1989 128.764 76.4949 128.972 76.8949C129.188 77.2949 129.296 77.7989 129.296 78.4069V82.0669H128.444V78.4909C128.444 77.8269 128.284 77.3269 127.964 76.9909C127.652 76.6469 127.208 76.4749 126.632 76.4749C126.2 76.4749 125.824 76.5669 125.504 76.7509C125.192 76.9269 124.948 77.1869 124.772 77.5309C124.604 77.8669 124.52 78.2749 124.52 78.7549V82.0669H123.668V78.4909C123.668 77.8269 123.508 77.3269 123.188 76.9909C122.868 76.6469 122.42 76.4749 121.844 76.4749C121.42 76.4749 121.048 76.5669 120.728 76.7509C120.408 76.9269 120.16 77.1869 119.984 77.5309C119.816 77.8669 119.732 78.2749 119.732 78.7549V82.0669H118.88V75.7669H119.696V77.4709L119.564 77.1709C119.756 76.7149 120.064 76.3589 120.488 76.1029C120.92 75.8389 121.428 75.7069 122.012 75.7069C122.628 75.7069 123.152 75.8629 123.584 76.1749C124.016 76.4789 124.296 76.9389 124.424 77.5549L124.088 77.4229C124.272 76.9109 124.596 76.4989 125.06 76.1869C125.532 75.8669 126.096 75.7069 126.752 75.7069ZM134.858 82.1269C134.314 82.1269 133.822 82.0029 133.382 81.7549C132.942 81.4989 132.59 81.1349 132.326 80.6629C132.07 80.1829 131.942 79.5989 131.942 78.9109C131.942 78.2229 132.07 77.6429 132.326 77.1709C132.582 76.6909 132.93 76.3269 133.37 76.0789C133.81 75.8309 134.306 75.7069 134.858 75.7069C135.458 75.7069 135.994 75.8429 136.466 76.1149C136.946 76.3789 137.322 76.7549 137.594 77.2429C137.866 77.7229 138.002 78.2789 138.002 78.9109C138.002 79.5509 137.866 80.1109 137.594 80.5909C137.322 81.0709 136.946 81.4469 136.466 81.7189C135.994 81.9909 135.458 82.1269 134.858 82.1269ZM131.606 84.3949V75.7669H132.422V77.6629L132.338 78.9229L132.458 80.1949V84.3949H131.606ZM134.798 81.3709C135.246 81.3709 135.646 81.2709 135.998 81.0709C136.35 80.8629 136.63 80.5749 136.838 80.2069C137.046 79.8309 137.15 79.3989 137.15 78.9109C137.15 78.4229 137.046 77.9949 136.838 77.6269C136.63 77.2589 136.35 76.9709 135.998 76.7629C135.646 76.5549 135.246 76.4509 134.798 76.4509C134.35 76.4509 133.946 76.5549 133.586 76.7629C133.234 76.9709 132.954 77.2589 132.746 77.6269C132.546 77.9949 132.446 78.4229 132.446 78.9109C132.446 79.3989 132.546 79.8309 132.746 80.2069C132.954 80.5749 133.234 80.8629 133.586 81.0709C133.946 81.2709 134.35 81.3709 134.798 81.3709ZM141.731 82.1269C141.139 82.1269 140.683 81.9669 140.363 81.6469C140.043 81.3269 139.883 80.8749 139.883 80.2909V74.3749H140.735V80.2429C140.735 80.6109 140.827 80.8949 141.011 81.0949C141.203 81.2949 141.475 81.3949 141.827 81.3949C142.203 81.3949 142.515 81.2869 142.763 81.0709L143.063 81.6829C142.895 81.8349 142.691 81.9469 142.451 82.0189C142.219 82.0909 141.979 82.1269 141.731 82.1269ZM138.755 76.4749V75.7669H142.655V76.4749H138.755ZM147.067 82.1269C146.411 82.1269 145.835 81.9909 145.339 81.7189C144.843 81.4389 144.455 81.0589 144.175 80.5789C143.895 80.0909 143.755 79.5349 143.755 78.9109C143.755 78.2869 143.887 77.7349 144.151 77.2549C144.423 76.7749 144.791 76.3989 145.255 76.1269C145.727 75.8469 146.255 75.7069 146.839 75.7069C147.431 75.7069 147.955 75.8429 148.411 76.1149C148.875 76.3789 149.239 76.7549 149.503 77.2429C149.767 77.7229 149.899 78.2789 149.899 78.9109C149.899 78.9509 149.895 78.9949 149.887 79.0429C149.887 79.0829 149.887 79.1269 149.887 79.1749H144.403V78.5389H149.431L149.095 78.7909C149.095 78.3349 148.995 77.9309 148.795 77.5789C148.603 77.2189 148.339 76.9389 148.003 76.7389C147.667 76.5389 147.279 76.4389 146.839 76.4389C146.407 76.4389 146.019 76.5389 145.675 76.7389C145.331 76.9389 145.063 77.2189 144.871 77.5789C144.679 77.9389 144.583 78.3509 144.583 78.8149V78.9469C144.583 79.4269 144.687 79.8509 144.895 80.2189C145.111 80.5789 145.407 80.8629 145.783 81.0709C146.167 81.2709 146.603 81.3709 147.091 81.3709C147.475 81.3709 147.831 81.3029 148.159 81.1669C148.495 81.0309 148.783 80.8229 149.023 80.5429L149.503 81.0949C149.223 81.4309 148.871 81.6869 148.447 81.8629C148.031 82.0389 147.571 82.1269 147.067 82.1269Z" fill="white"/>
</svg>
