<svg xmlns="http://www.w3.org/2000/svg" width="42" height="43" viewBox="0 0 42 43" fill="none">
    <mask id="path-2-inside-1_1012_1126" fill="white">
        <path fill-rule="evenodd" clip-rule="evenodd" d="M18.0436 26.7078C17.7431 27.0083 17.7431 27.4956 18.0436 27.7961C18.3441 28.0966 18.8314 28.0966 19.1319 27.7961L24.4811 22.4469C24.5205 22.4201 24.5579 22.3892 24.5928 22.3543C24.8934 22.0538 24.8934 21.5666 24.5928 21.266L19.1515 15.8247C18.8509 15.5241 18.3637 15.5241 18.0632 15.8247C17.7627 16.1252 17.7627 16.6124 18.0632 16.9129L22.9508 21.8006L18.0436 26.7078Z" />
    </mask>
    <path fill-rule="evenodd" clip-rule="evenodd" d="M18.0436 26.7078C17.7431 27.0083 17.7431 27.4956 18.0436 27.7961C18.3441 28.0966 18.8314 28.0966 19.1319 27.7961L24.4811 22.4469C24.5205 22.4201 24.5579 22.3892 24.5928 22.3543C24.8934 22.0538 24.8934 21.5666 24.5928 21.266L19.1515 15.8247C18.8509 15.5241 18.3637 15.5241 18.0632 15.8247C17.7627 16.1252 17.7627 16.6124 18.0632 16.9129L22.9508 21.8006L18.0436 26.7078Z" fill="white" />
    <path d="M18.0436 27.7961L18.7507 27.089L18.7507 27.089L18.0436 27.7961ZM18.0436 26.7078L17.3365 26.0007H17.3365L18.0436 26.7078ZM19.1319 27.7961L19.839 28.5032V28.5032L19.1319 27.7961ZM24.4811 22.4469L23.9184 21.6203L23.8406 21.6732L23.774 21.7398L24.4811 22.4469ZM24.5928 21.266L23.8857 21.9731L24.5928 21.266ZM19.1515 15.8247L19.8586 15.1176L19.1515 15.8247ZM18.0632 15.8247L17.3561 15.1176L17.3561 15.1176L18.0632 15.8247ZM18.0632 16.9129L17.3561 17.62L17.3561 17.62L18.0632 16.9129ZM22.9508 21.8006L23.658 22.5077L24.3651 21.8006L23.658 21.0935L22.9508 21.8006ZM18.7507 27.089C18.8407 27.179 18.8407 27.3249 18.7507 27.4149L17.3365 26.0007C16.6455 26.6918 16.6455 27.8122 17.3365 28.5032L18.7507 27.089ZM18.4248 27.089C18.5148 26.999 18.6607 26.999 18.7507 27.089L17.3365 28.5032C18.0276 29.1942 19.148 29.1942 19.839 28.5032L18.4248 27.089ZM23.774 21.7398L18.4248 27.089L19.839 28.5032L25.1882 23.154L23.774 21.7398ZM23.8857 21.6472C23.8953 21.6376 23.9062 21.6285 23.9184 21.6203L25.0438 23.2735C25.1347 23.2117 25.2205 23.1408 25.2999 23.0614L23.8857 21.6472ZM23.8857 21.9731C23.7957 21.8831 23.7957 21.7372 23.8857 21.6472L25.2999 23.0614C25.991 22.3704 25.991 21.25 25.2999 20.5589L23.8857 21.9731ZM18.4444 16.5318L23.8857 21.9731L25.2999 20.5589L19.8586 15.1176L18.4444 16.5318ZM18.7703 16.5318C18.6803 16.6218 18.5344 16.6218 18.4444 16.5318L19.8586 15.1176C19.1675 14.4265 18.0471 14.4265 17.3561 15.1176L18.7703 16.5318ZM18.7703 16.2058C18.8603 16.2958 18.8603 16.4418 18.7703 16.5318L17.3561 15.1176C16.665 15.8086 16.665 16.929 17.3561 17.62L18.7703 16.2058ZM23.658 21.0935L18.7703 16.2058L17.3561 17.62L22.2437 22.5077L23.658 21.0935ZM18.7507 27.4149L23.658 22.5077L22.2437 21.0935L17.3365 26.0007L18.7507 27.4149Z" fill="white" mask="url(#path-2-inside-1_1012_1126)" />
</svg>