<svg xmlns="http://www.w3.org/2000/svg" width="78" height="53" viewBox="0 0 78 53" fill="none">
  <g clip-path="url(#clip0_1033_2243)">
    <mask id="path-1-inside-1_1033_2243" fill="white">
      <path fill-rule="evenodd" clip-rule="evenodd" d="M60.7017 32.5551C63.8463 35.1663 67.8962 36.7365 72.3192 36.7365C75.4468 36.7365 78 39.2754 78 42.4491C78 45.6228 75.4468 48.0982 72.3192 48.0982H72.2553C55.9787 48.0982 42.7021 34.8958 42.7021 18.7102V16.6491C42.7021 16.3405 42.7273 16.0375 42.7757 15.742C43.0777 6.99335 50.2984 0 59.1701 0C68.234 0 75.5744 7.2994 75.5744 16.3126C75.5744 24.8122 69.0466 31.7878 60.7017 32.5551Z"/>
    </mask>
    <path d="M60.7017 32.5551L60.5185 30.5635L55.7055 31.0061L59.424 34.0938L60.7017 32.5551ZM42.7757 15.742L44.7494 16.0654L44.7701 15.939L44.7745 15.811L42.7757 15.742ZM59.424 34.0938C62.9159 36.9933 67.4145 38.7365 72.3192 38.7365V34.7365C68.3779 34.7365 64.7767 33.3392 61.9793 31.0164L59.424 34.0938ZM72.3192 38.7365C74.3383 38.7365 76 40.376 76 42.4491H80C80 38.1749 76.5554 34.7365 72.3192 34.7365V38.7365ZM76 42.4491C76 44.493 74.3676 46.0982 72.3192 46.0982V50.0982C76.5261 50.0982 80 46.7525 80 42.4491H76ZM72.3192 46.0982H72.2553V50.0982H72.3192V46.0982ZM72.2553 46.0982C57.0727 46.0982 44.7021 33.7807 44.7021 18.7102H40.7021C40.7021 36.0109 54.8848 50.0982 72.2553 50.0982V46.0982ZM44.7021 18.7102V16.6491H40.7021V18.7102H44.7021ZM44.7021 16.6491C44.7021 16.4493 44.7184 16.2544 44.7494 16.0654L40.802 15.4186C40.7362 15.8205 40.7021 16.2317 40.7021 16.6491H44.7021ZM44.7745 15.811C45.0391 8.1458 51.3697 2 59.1701 2V-2C49.227 -2 41.1163 5.84089 40.7769 15.673L44.7745 15.811ZM59.1701 2C67.14 2 73.5744 8.41452 73.5744 16.3126H77.5744C77.5744 6.18428 69.3279 -2 59.1701 -2V2ZM73.5744 16.3126C73.5744 23.7601 67.8527 29.8891 60.5185 30.5635L60.8848 34.5467C70.2405 33.6864 77.5744 25.8643 77.5744 16.3126H73.5744Z" fill="#A71680" mask="url(#path-1-inside-1_1033_2243)"/>
    <mask id="path-3-inside-2_1033_2243" fill="white">
      <path fill-rule="evenodd" clip-rule="evenodd" d="M18.9995 32.5551C22.1441 35.1663 26.1941 36.7365 30.617 36.7365C33.7447 36.7365 36.2979 39.2754 36.2979 42.4491C36.2979 45.6228 33.7447 48.0982 30.617 48.0982H30.5532C14.2766 48.0982 1 34.8958 1 18.7102V16.6491C1 16.3405 1.02514 16.0375 1.07355 15.742C1.37556 6.99335 8.5962 0 17.468 0C26.5318 0 33.8722 7.2994 33.8722 16.3126C33.8722 24.8122 27.3445 31.7878 18.9995 32.5551Z"/>
    </mask>
    <path d="M18.9995 32.5551L18.8164 30.5635L14.0033 31.0061L17.7218 34.0938L18.9995 32.5551ZM1.07355 15.742L3.04723 16.0654L3.06794 15.939L3.07236 15.811L1.07355 15.742ZM17.7218 34.0938C21.2137 36.9933 25.7124 38.7365 30.617 38.7365V34.7365C26.6758 34.7365 23.0745 33.3392 20.2772 31.0164L17.7218 34.0938ZM30.617 38.7365C32.6361 38.7365 34.2979 40.376 34.2979 42.4491H38.2979C38.2979 38.1749 34.8532 34.7365 30.617 34.7365V38.7365ZM34.2979 42.4491C34.2979 44.493 32.6654 46.0982 30.617 46.0982V50.0982C34.8239 50.0982 38.2979 46.7525 38.2979 42.4491H34.2979ZM30.617 46.0982H30.5532V50.0982H30.617V46.0982ZM30.5532 46.0982C15.3706 46.0982 3 33.7807 3 18.7102H-1C-1 36.0109 13.1826 50.0982 30.5532 50.0982V46.0982ZM3 18.7102V16.6491H-1V18.7102H3ZM3 16.6491C3 16.4493 3.01626 16.2544 3.04723 16.0654L-0.900127 15.4186C-0.965981 15.8205 -1 16.2317 -1 16.6491H3ZM3.07236 15.811C3.33697 8.1458 9.66752 2 17.468 2V-2C7.52489 -2 -0.585845 5.84089 -0.925255 15.673L3.07236 15.811ZM17.468 2C25.4378 2 31.8722 8.41452 31.8722 16.3126H35.8722C35.8722 6.18428 27.6258 -2 17.468 -2V2ZM31.8722 16.3126C31.8722 23.7601 26.1506 29.8891 18.8164 30.5635L19.1826 34.5467C28.5384 33.6864 35.8722 25.8643 35.8722 16.3126H31.8722Z" fill="#A71680" mask="url(#path-3-inside-2_1033_2243)"/>
  </g>
  <defs>
    <clipPath id="clip0_1033_2243">
      <rect width="78" height="53" fill="white"/>
    </clipPath>
  </defs>
</svg>