<svg width="26" height="25" viewBox="0 0 26 25" fill="none" xmlns="http://www.w3.org/2000/svg">
<g id="Brand Logos">
<path id="Vector" d="M3.92099 5.71291H3.88579C3.50251 5.73602 3.11859 5.67987 2.75799 5.54796C2.39739 5.41604 2.06785 5.2112 1.78997 4.94622C1.51208 4.68124 1.29181 4.36182 1.14291 4.00789C0.994003 3.65397 0.919668 3.27315 0.924541 2.8892C0.929415 2.50526 1.01339 2.12645 1.17123 1.77642C1.32907 1.42639 1.55738 1.11266 1.8419 0.854817C2.12643 0.596978 2.46105 0.400567 2.82489 0.277849C3.18872 0.155132 3.57395 0.108744 3.95652 0.141582C4.34098 0.113738 4.72704 0.165738 5.09043 0.294312C5.45383 0.422886 5.78669 0.625253 6.06809 0.88869C6.34949 1.15213 6.57334 1.47093 6.72558 1.82507C6.87781 2.1792 6.95513 2.561 6.95267 2.94646C6.95021 3.33192 6.86803 3.7127 6.7113 4.06487C6.55456 4.41703 6.32666 4.73296 6.04192 4.99279C5.75718 5.25261 5.42177 5.45072 5.05676 5.57465C4.69176 5.69858 4.30507 5.74565 3.92099 5.71291Z" fill="white"/>
<path id="Vector_2" d="M6.43909 9.46289H1.43909V24.4629H6.43909V9.46289Z" fill="white"/>
<path id="Vector_3" d="M19.5635 9.46289C18.7209 9.46519 17.8898 9.6579 17.1322 10.0266C16.3746 10.3953 15.7101 10.9305 15.1885 11.5922V9.46289H10.1885V24.4629H15.1885V17.5879C15.1885 16.9248 15.4519 16.289 15.9207 15.8201C16.3896 15.3513 17.0254 15.0879 17.6885 15.0879C18.3515 15.0879 18.9874 15.3513 19.4562 15.8201C19.9251 16.289 20.1885 16.9248 20.1885 17.5879V24.4629H25.1885V15.0879C25.1885 14.3492 25.043 13.6178 24.7603 12.9353C24.4776 12.2528 24.0633 11.6327 23.541 11.1104C23.0186 10.5881 22.3985 10.1738 21.7161 9.89107C21.0336 9.60839 20.3022 9.46289 19.5635 9.46289Z" fill="white"/>
</g>
</svg>
