<svg width="31" height="31" viewBox="0 0 31 31" fill="none" xmlns="http://www.w3.org/2000/svg">
<g id="youtube">
<path id="Vector" d="M29.0833 13.1005C29.1451 11.3113 28.7538 9.53551 27.9458 7.93799C27.3975 7.28249 26.6367 6.84013 25.7958 6.68799C22.3177 6.3724 18.8252 6.24305 15.3333 6.30049C11.8541 6.24044 8.37417 6.36562 4.90829 6.67549C4.22306 6.80014 3.58893 7.12155 3.08329 7.60049C1.95829 8.63799 1.83329 10.413 1.70829 11.913C1.52693 14.6099 1.52693 17.316 1.70829 20.013C1.74445 20.8572 1.87015 21.6953 2.08329 22.513C2.234 23.1443 2.53894 23.7284 2.97079 24.213C3.47987 24.7173 4.12877 25.057 4.83329 25.188C7.52818 25.5206 10.2436 25.6585 12.9583 25.6005C17.3333 25.663 21.1708 25.6005 25.7083 25.2505C26.4301 25.1276 27.0973 24.7874 27.6208 24.2755C27.9707 23.9254 28.2321 23.4969 28.3833 23.0255C28.8303 21.6538 29.0499 20.2181 29.0333 18.7755C29.0833 18.0755 29.0833 13.8505 29.0833 13.1005ZM12.5083 19.5255V11.788L19.9083 15.6755C17.8333 16.8255 15.0958 18.1255 12.5083 19.5255Z" fill="white"/>
</g>
</svg>
